<?xml version="1.0" encoding="UTF-8" standalone="no"?>
<!-- Created with Inkscape (http://www.inkscape.org/) -->

<svg
   width="30.280966mm"
   height="13.718462mm"
   viewBox="0 0 30.280966 13.718462"
   version="1.1"
   id="svg1"
   xml:space="preserve"
   inkscape:version="1.4.2 (ebf0e940d0, 2025-05-08)"
   sodipodi:docname="icon.svg"
   inkscape:export-filename="favicon.ico"
   inkscape:export-xdpi="96"
   inkscape:export-ydpi="96"
   xmlns:inkscape="http://www.inkscape.org/namespaces/inkscape"
   xmlns:sodipodi="http://sodipodi.sourceforge.net/DTD/sodipodi-0.dtd"
   xmlns="http://www.w3.org/2000/svg"
   xmlns:svg="http://www.w3.org/2000/svg"><sodipodi:namedview
     id="namedview1"
     pagecolor="#ffffff"
     bordercolor="#000000"
     borderopacity="0.25"
     inkscape:showpageshadow="2"
     inkscape:pageopacity="0.0"
     inkscape:pagecheckerboard="0"
     inkscape:deskcolor="#d1d1d1"
     inkscape:document-units="mm"
     inkscape:zoom="3.1037318"
     inkscape:cx="52.839618"
     inkscape:cy="-7.2493378"
     inkscape:window-width="1916"
     inkscape:window-height="1044"
     inkscape:window-x="0"
     inkscape:window-y="32"
     inkscape:window-maximized="1"
     inkscape:current-layer="layer1" /><defs
     id="defs1" /><g
     inkscape:label="Layer 1"
     inkscape:groupmode="layer"
     id="layer1"
     transform="translate(-18.145571,-184.2999)"><path
       style="fill:#5b59ef;fill-opacity:1"
       d="m 35.131754,197.79974 c -4.535229,-1.16125 -7.698677,-5.2116 -5.878101,-7.52609 0.601227,-0.76434 0.575687,-0.85005 -0.742551,-2.49192 -1.687639,-2.10197 -4.653676,-2.84725 -6.602454,-1.659 -3.086985,1.88225 -1.99222,7.27981 1.725386,8.50673 1.189926,0.39271 0.327922,1.0053 -1.436051,1.02054 -5.118436,0.0442 -5.501278,-7.87287 -0.502149,-10.38431 3.936392,-1.97755 6.378931,-1.0242 9.852149,3.84541 3.249307,4.55567 5.425895,6.33941 8.287627,6.79178 1.588957,0.25119 2.311032,-0.0876 0.973747,-0.45679 -2.594842,-0.71647 -8.482254,-6.79846 -7.604617,-7.85595 1.261268,-1.51973 3.44641,-0.86791 5.291698,1.5785 2.854915,3.78494 5.027752,5.29242 6.70769,4.65371 1.611353,-0.61263 1.930505,-2.90041 0.545375,-3.9094 -1.194209,-0.86993 0.108994,-2.23294 1.594827,-1.66803 2.702437,1.02747 -0.01284,6.78966 -4.213979,8.94265 -1.431328,0.73352 -6.122449,1.09255 -7.998597,0.61217 z"
       id="path1"
       sodipodi:nodetypes="ssssssssscsssssss" /></g></svg>
